<?xml version="1.0" encoding="UTF-8" standalone="no"?>
<!-- Created with Inkscape (http://www.inkscape.org/) -->

<svg
   xmlns:dc="http://purl.org/dc/elements/1.1/"
   xmlns:cc="http://creativecommons.org/ns#"
   xmlns:rdf="http://www.w3.org/1999/02/22-rdf-syntax-ns#"
   xmlns:svg="http://www.w3.org/2000/svg"
   xmlns="http://www.w3.org/2000/svg"
   xmlns:xlink="http://www.w3.org/1999/xlink"
   xmlns:sodipodi="http://sodipodi.sourceforge.net/DTD/sodipodi-0.dtd"
   xmlns:inkscape="http://www.inkscape.org/namespaces/inkscape"
   width="165.09593mm"
   height="109.67506mm"
   viewBox="0 0 584.98559 388.61242"
   id="svg2"
   version="1.1"
   inkscape:version="0.92.1 r"
   sodipodi:docname="logo(official).svg"
   inkscape:export-filename="K:\cloud\see-base\logo\logo.png"
   inkscape:export-xdpi="291.23132"
   inkscape:export-ydpi="291.23132">
  <defs
     id="defs4">
    <linearGradient
       inkscape:collect="always"
       id="linearGradient4988">
      <stop
         style="stop-color:#666666;stop-opacity:1;"
         offset="0"
         id="stop4984" />
      <stop
         style="stop-color:#080000;stop-opacity:1"
         offset="1"
         id="stop4986" />
    </linearGradient>
    <linearGradient
       inkscape:collect="always"
       xlink:href="#linearGradient4988"
       id="linearGradient4996"
       x1="-2113.9297"
       y1="584.29858"
       x2="-2114.9031"
       y2="595.46442"
       gradientUnits="userSpaceOnUse" />
    <filter
       inkscape:collect="always"
       style="color-interpolation-filters:sRGB"
       id="filter5102"
       x="-0.068555035"
       width="1.1371101"
       y="-0.2833567"
       height="1.5667135">
      <feGaussianBlur
         inkscape:collect="always"
         stdDeviation="0.17863091"
         id="feGaussianBlur5104" />
    </filter>
  </defs>
  <sodipodi:namedview
     id="base"
     pagecolor="#ffffff"
     bordercolor="#666666"
     borderopacity="1.0"
     inkscape:pageopacity="0.0"
     inkscape:pageshadow="2"
     inkscape:zoom="0.90509668"
     inkscape:cx="183.5003"
     inkscape:cy="255.5899"
     inkscape:document-units="px"
     inkscape:current-layer="layer1"
     showgrid="false"
     fit-margin-top="0"
     fit-margin-left="0"
     fit-margin-right="0"
     fit-margin-bottom="0"
     showguides="false"
     inkscape:guide-bbox="true"
     inkscape:window-width="1920"
     inkscape:window-height="1009"
     inkscape:window-x="0"
     inkscape:window-y="29"
     inkscape:window-maximized="1"
     inkscape:snap-text-baseline="true">
    <sodipodi:guide
       position="1351.0777,-840.15796"
       orientation="1,0"
       id="guide4272"
       inkscape:locked="false" />
  </sodipodi:namedview>
  <metadata
     id="metadata7">
    <rdf:RDF>
      <cc:Work
         rdf:about="">
        <dc:format>image/svg+xml</dc:format>
        <dc:type
           rdf:resource="http://purl.org/dc/dcmitype/StillImage" />
        <dc:title></dc:title>
      </cc:Work>
    </rdf:RDF>
  </metadata>
  <g
     inkscape:groupmode="layer"
     id="layer3"
     inkscape:label="back"
     transform="translate(37.646008,1298.1889)"
     style="display:inline" />
  <g
     inkscape:label="Layer 1"
     inkscape:groupmode="layer"
     id="layer1"
     transform="translate(3121.1597,1016.3502)"
     style="display:inline">
    <g
       style="fill:#000000;fill-opacity:1"
       transform="rotate(-4.6960909,-3169.5631,-1683.3822)"
       id="g5150">
      <circle
         style="opacity:1;fill:url(#linearGradient4996);fill-opacity:1;stroke:#080000;stroke-width:0.375;stroke-miterlimit:4;stroke-dasharray:none;stroke-opacity:1"
         id="path4982"
         cx="-2115.1724"
         cy="589.02179"
         r="5.634757"
         transform="rotate(4.6960909)" />
      <path
         transform="matrix(1.0614338,0.08719284,-0.08563806,1.0425069,139.64851,-15.63668)"
         style="opacity:1;fill:#000000;fill-opacity:1;stroke:none;stroke-width:0.48053387;stroke-miterlimit:4;stroke-dasharray:none;stroke-opacity:1;filter:url(#filter5102)"
         d="m -2112.363,592.50903 c 0,0.41779 -1.3311,1.66675 -3.0579,1.66676 -1.7269,0 -3.1956,-1.24896 -3.1956,-1.66676 0,-0.4178 1.3999,-0.75649 3.1268,-0.75649 1.7268,1e-5 3.1267,0.3387 3.1267,0.75649 z"
         id="path5000"
         inkscape:connector-curvature="0"
         sodipodi:nodetypes="ccccc" />
    </g>
    <flowRoot
       style="font-style:normal;font-weight:normal;line-height:0.01%;font-family:sans-serif;letter-spacing:0px;word-spacing:0px;fill:#000000;fill-opacity:1;stroke:none"
       id="flowRoot5842"
       xml:space="preserve"
       transform="rotate(-4.6960909,222.99276,157.01947)"><flowRegion
         id="flowRegion5844"><rect
           y="-775.7973"
           x="678.82251"
           height="800.04083"
           width="1208.1425"
           id="rect5846" /></flowRegion><flowPara
         id="flowPara5848"
         style="font-size:40px;line-height:25"> </flowPara></flowRoot>    <text
       id="text4403"
       y="564.59161"
       x="-2390.1306"
       style="font-style:normal;font-weight:normal;line-height:0%;font-family:sans-serif;letter-spacing:0px;word-spacing:0px;fill:#000000;fill-opacity:1;stroke:none;stroke-width:0.9375"
       xml:space="preserve"><tspan
         style="font-size:37.5px;line-height:23.4375;stroke-width:0.9375"
         y="564.59161"
         x="-2390.1306"
         id="tspan4401"
         sodipodi:role="line"> </tspan><tspan
         id="tspan4405"
         style="font-size:37.5px;line-height:23.4375;stroke-width:0.9375"
         y="1443.4978"
         x="-2390.1306"
         sodipodi:role="line"> </tspan></text>
    <flowRoot
       xml:space="preserve"
       id="flowRoot488"
       style="font-style:normal;font-weight:normal;line-height:0.01%;font-family:sans-serif;letter-spacing:0px;word-spacing:0px;fill:#000000;fill-opacity:1;stroke:none"
       transform="matrix(0.93749998,0,0,0.93749998,-4206.5113,-365.37992)"><flowRegion
         id="flowRegion490"><rect
           id="rect492"
           width="144.45181"
           height="49.497475"
           x="-694.98492"
           y="488.9137" /></flowRegion><flowPara
         id="flowPara494"
         style="font-size:40px;line-height:25"> </flowPara></flowRoot>    <rect
       style="opacity:1;fill:#070000;fill-opacity:1;stroke:none;stroke-width:0.90657866;stroke-miterlimit:4;stroke-dasharray:none;stroke-opacity:1"
       id="rect4515"
       width="584.9856"
       height="388.61243"
       x="-3121.1597"
       y="-1016.3502"
       inkscape:export-filename="/home/kr0l/cloud/see-base/Grafik/logo/logo(official).png"
       inkscape:export-xdpi="142"
       inkscape:export-ydpi="142" />
    <g
       id="g4286"
       transform="translate(-295.99062,-746.79625)">
      <g
         id="g4313">
        <g
           id="g4444"
           transform="translate(77.34375,11.71875)">
          <g
             aria-label="see-base"
             transform="matrix(1.1785431,-0.24471368,0.28611572,0.789096,-55.54422,-893.12747)"
             style="font-style:normal;font-weight:normal;font-size:30.86894226px;line-height:19.29308701px;font-family:sans-serif;letter-spacing:0px;word-spacing:0px;display:inline;fill:#ffffff;fill-opacity:1;stroke:none;stroke-width:0.77172351"
             id="text4697-4-0"
             inkscape:export-xdpi="175.99503"
             inkscape:export-ydpi="175.99503" />
          <g
             id="g4314">
            <path
               transform="translate(-2880.0431,-253.03434)"
               id="path4340"
               d="m 269.6875,0.73242188 c -8.3286,4.88281002 -12.09082,6.68157552 -13.94922,9.66796912 -5.9323,9.5332 2.81836,22.332031 2.81836,22.332031 0,0 -14.44487,6.650324 -16.92187,13.521484 -2.2764,7.37983 4.59736,21.402933 2.47656,23.408203 L 225.9668,82.910156 209.47266,97.269531 c 0,0 -33.28461,1.656916 -71.81641,15.191409 -32.14,11.28933 -72.090316,29.83001 -80.791016,39.35937 -3.0829,3.37646 1.79445,12.43004 1.65625,13.94922 -0.1381,1.51917 -55.4764215,20.55632 -58.4199215,32.86914 -1.3811,4.69563 11.6022235,14.36421 14.6406255,16.02149 3.038299,1.65728 10.772345,-1.65765 66.84375,-18.23047 33.781622,-9.98473 55.453252,-14.76221 69.931642,-16.26367 -5e-5,-0.002 5e-5,-0.004 0,-0.006 5.33301,-0.74023 10.62022,-0.88336 15.43164,-0.22852 1.95187,0.22859 3.67768,0.56629 5.19726,1.00781 3.5668,1.03634 4.88868,5.39063 4.88868,5.39063 l -5.65235,2.41211 c -0.0167,-4.30207 -0.7832,-8.14649 -0.7832,-8.14649 -1.17667,-0.28354 -2.40077,-0.49398 -3.65039,-0.66406 -3.98713,-0.46693 -9.01821,-0.43072 -15.43164,0.23438 0.0887,3.17658 0.12872,8.36414 2.41211,15.32421 -7.0466,4.74029 -13.19183,9.92173 -14.44531,17.49415 3.03849,4.35178 8.80668,6.79169 20.92578,4.7871 0.4757,4.03257 4.74952,32.44136 12.61132,31.22461 5.8496,-1.28758 8.93098,-14.32423 8.35938,-25.6914 -0.2889,-5.74647 -1.87183,-11.16961 -3.76953,-14.22266 l 7.46679,-3.77148 c 3.23541,7.70848 9.30409,12.75934 10.58399,15.42578 3.3146,6.90534 -5.92436,25.25839 -22.09766,41.43164 -23.202,23.20194 -77.615084,40.05119 -80.929684,42.53711 -3.4552,3.33024 10.780444,30.33341 13.810544,29.00195 2.8832,-1.26694 92.47636,-27.29256 124.84766,-49.44141 36.7364,-25.13544 59.79101,-66.8496 59.79101,-66.8496 0,0 55.7491,-6.95019 101.375,-27.31836 39.4115,-17.594 68.46458,-47.30343 81.04688,-66.04102 27.1485,-40.429631 27.57812,-66.423828 27.57812,-66.423828 l 34.52735,-23.064453 -39.08399,13.535157 c 0,0 -34.39992,-25.883629 -86.32812,-30.855469 -51.9281,-4.97184 -97.63552,13.039728 -102.60742,15.111328 -4.9718,2.07161 -16.10395,-12.972702 -21.16992,-12.763672 -4.8517,0.20018 -15.35352,5.582031 -15.35352,5.582031 0,0 -1.93326,-3.454095 -1.38086,-6.078125 0.5525,-2.62403 6.83594,-5.455078 6.83594,-5.455078 C 275.77824,7.7170428 274.5332,4.2334519 269.6875,0.73242188 Z M 390.40039,16.921875 c 7.74095,0.06241 16.35427,0.594433 25.82031,1.8125 39.6169,5.09779 59.45899,18.695307 59.45899,18.695313 0.8325,18.843389 -11.50881,51.529935 -50.94141,55.634765 -35.5755,3.70332 -75.00312,-33.762537 -84.16992,-68.304687 0,0 15.99099,-7.561879 46.56836,-7.835938 1.07021,-0.0096 2.15782,-0.01087 3.26367,-0.002 z M 377.51953,155.45312 c 0.84592,-0.033 1.66033,0.0396 2.44336,0.2168 2.09513,0.46061 3.67324,1.60252 4.73242,3.42578 l 0.57031,0.98438 -14.23437,5.73828 c 0.93956,1.33142 2.19185,2.13036 3.75977,2.39844 1.57494,0.25625 3.39043,-0.03 5.44336,-0.85742 1.18911,-0.47933 2.28273,-1.03655 3.2832,-1.67383 1.01166,-0.64181 1.9569,-1.3749 2.83594,-2.19727 l 1.10546,1.9043 c -0.93264,0.75397 -1.93433,1.44545 -3.00781,2.07617 -1.0734,0.6307 -2.21171,1.18802 -3.41211,1.67187 -3.00648,1.21187 -5.72048,1.6036 -8.14258,1.17579 -2.41104,-0.43228 -4.17971,-1.61668 -5.30664,-3.55664 -1.16508,-2.00559 -1.2575,-3.93001 -0.27929,-5.77344 0.98508,-1.85521 2.88973,-3.35265 5.71679,-4.49219 1.58453,-0.6387 3.08233,-0.98605 4.49219,-1.04102 z m -0.22265,2.10938 c -1.018,-0.0453 -2.09988,0.16181 -3.24415,0.62305 -1.72757,0.69636 -2.92873,1.57191 -3.60351,2.62695 -0.66342,1.0505 -0.73889,2.18478 -0.22656,3.40039 l 11.0332,-4.46094 c -0.66208,-1.09224 -1.65048,-1.77949 -2.96289,-2.06054 -0.3253,-0.0714 -0.65676,-0.1138 -0.99609,-0.12891 z m -18.24415,5.57422 1.07227,1.92187 c -1.04534,0.0431 -2.08236,0.17233 -3.11328,0.38868 -1.03093,0.21632 -2.05584,0.51859 -3.07227,0.9082 -1.54723,0.59307 -2.62382,1.19472 -3.23047,1.80273 -0.59537,0.6037 -0.72037,1.21341 -0.375,1.83203 0.26308,0.47134 0.74759,0.73847 1.45313,0.79883 0.70143,0.053 1.95651,-0.11993 3.76367,-0.51758 l 1.15234,-0.2539 c 2.38636,-0.53918 4.20082,-0.70431 5.44336,-0.49219 1.24995,0.20037 2.15752,0.8055 2.72071,1.81445 0.6413,1.14888 0.44827,2.32817 -0.57813,3.53516 -1.01497,1.20262 -2.74214,2.27002 -5.18164,3.20508 -1.01651,0.38962 -2.11414,0.73177 -3.29492,1.02344 -1.16532,0.29468 -2.4312,0.54606 -3.79492,0.75586 l -1.17188,-2.09961 c 1.36985,-0.0512 2.66935,-0.19021 3.89844,-0.41993 1.22498,-0.2371 2.38684,-0.56641 3.48242,-0.98632 1.46817,-0.56275 2.50553,-1.15808 3.11524,-1.78516 0.6056,-0.63444 0.7432,-1.24918 0.41015,-1.8457 -0.30832,-0.55234 -0.83381,-0.86564 -1.57422,-0.93946 -0.72913,-0.0781 -2.13532,0.1162 -4.21875,0.58399 l -1.17578,0.25 c -2.07925,0.47512 -3.70069,0.60463 -4.86328,0.38867 -1.16661,-0.22336 -2.01633,-0.81213 -2.55078,-1.76953 -0.64959,-1.16359 -0.51876,-2.30564 0.39258,-3.42383 0.91141,-1.11822 2.52894,-2.12386 4.85547,-3.01562 1.15203,-0.44157 2.26766,-0.80097 3.3457,-1.08008 1.0782,-0.27915 2.1082,-0.47202 3.08984,-0.58008 z m -21.39257,7.83789 c 0.82657,-0.009 1.58773,0.0819 2.28125,0.27148 1.84937,0.50563 3.25039,1.72837 4.20312,3.66602 l 3.56641,7.25391 -3.17383,1.03125 -0.94922,-1.93165 c -0.34521,1.00728 -0.96803,1.87186 -1.86719,2.59376 -0.90276,0.71429 -2.13662,1.32617 -3.70117,1.83398 -1.97878,0.64224 -3.73298,0.79107 -5.26367,0.44531 -1.52296,-0.35705 -2.58662,-1.14881 -3.18945,-2.375 -0.70338,-1.43053 -0.50835,-2.7443 0.58398,-3.9414 1.10382,-1.20084 3.09875,-2.26981 5.98633,-3.20704 l 4.45312,-1.44531 -0.10156,-0.20508 c -0.47265,-0.96125 -1.31978,-1.54531 -2.54297,-1.7539 -1.2153,-0.21993 -2.69249,-0.0482 -4.42969,0.51562 -1.10443,0.35847 -2.13633,0.79472 -3.09765,1.3086 -0.96124,0.51386 -1.83954,1.10184 -2.63477,1.76367 l -0.94922,-1.92969 c 1.01683,-0.67231 2.03631,-1.25925 3.0586,-1.75781 1.01846,-0.50611 2.04473,-0.92568 3.08008,-1.26172 1.74724,-0.5671 3.30987,-0.85985 4.6875,-0.875 z m -30.48047,2.58984 2.61328,7.20703 c 0.39943,-0.93555 1.05093,-1.70183 1.95508,-2.29882 0.91305,-0.60738 2.09801,-1.06082 3.55468,-1.36328 2.41586,-0.50164 4.6084,-0.26717 6.57813,0.70507 1.9816,0.96979 3.35232,2.50044 4.11133,4.59375 0.75901,2.09332 0.61454,3.93978 -0.43555,5.53907 -1.03822,1.59682 -2.76578,2.6468 -5.18164,3.14843 -1.45668,0.30247 -2.78072,0.3727 -3.97266,0.21094 -1.18302,-0.17214 -2.26189,-0.58409 -3.23632,-1.23437 l 0.7246,1.99804 -3.2871,0.6836 -6.70899,-18.50782 z m 34.21484,3.24024 -3.1582,1.02539 c -2.5655,0.83267 -4.24925,1.60146 -5.04883,2.30859 -0.79958,0.70714 -0.96942,1.52604 -0.51172,2.45703 0.36468,0.74177 1.02243,1.21405 1.97461,1.41407 0.95992,0.18873 2.07846,0.0746 3.35547,-0.33985 1.76009,-0.57127 2.96844,-1.43666 3.625,-2.59765 0.66429,-1.17228 0.66208,-2.44033 -0.008,-3.80274 l -0.22852,-0.46484 z m -24.36914,2.125 c -0.59035,-0.0165 -1.20905,0.0412 -1.85742,0.17578 -1.729,0.35901 -2.92467,1.10217 -3.58594,2.22851 -0.65235,1.11597 -0.68519,2.47827 -0.10156,4.0879 0.58363,1.60963 1.53312,2.7726 2.84961,3.48828 1.3254,0.70531 2.85303,0.87854 4.58203,0.51953 1.729,-0.35901 2.91804,-1.09694 3.57031,-2.21289 0.66135,-1.12636 0.70082,-2.49388 0.11719,-4.10352 -0.58363,-1.60963 -1.53781,-2.76737 -2.86328,-3.47266 -0.82276,-0.44731 -1.72701,-0.68343 -2.71094,-0.71093 z m -38.48047,5.24804 c 1.88153,0.0122 3.53081,0.39611 4.94727,1.15235 1.89841,0.99878 3.11748,2.51609 3.65625,4.55469 l 0.29101,1.10156 -15.24609,1.76562 c 0.55557,1.53225 1.55117,2.63464 2.99023,3.3086 1.45092,0.664 3.27593,0.86978 5.47461,0.61523 1.27363,-0.14746 2.47781,-0.39656 3.61133,-0.74609 1.14546,-0.35112 2.25104,-0.80685 3.31641,-1.36719 l 0.5625,2.12891 c -1.09891,0.48019 -2.24894,0.881 -3.45117,1.20507 -1.20208,0.32406 -2.4468,0.56016 -3.73243,0.70899 -3.21998,0.37279 -5.9415,0.0322 -8.16406,-1.02149 -2.21056,-1.05508 -3.60254,-2.66686 -4.17578,-4.83593 -0.59258,-2.24247 -0.17345,-4.1219 1.25781,-5.64063 1.44107,-1.52827 3.67539,-2.46783 6.70313,-2.81836 0.67885,-0.0786 1.3318,-0.1154 1.95898,-0.11133 z m -0.23633,1.94922 c -0.38007,-0.003 -0.77313,0.0191 -1.18164,0.0664 -1.85035,0.21422 -3.23999,0.73933 -4.16992,1.57812 -0.91785,0.8374 -1.29141,1.91088 -1.11914,3.21875 l 11.82031,-1.38085 c -0.34931,-1.22855 -1.12116,-2.15306 -2.3125,-2.77149 -0.88431,-0.46488 -1.89689,-0.70113 -3.03711,-0.71094 z m -23.58203,0.34375 c 2.28914,-0.0169 4.23699,0.45676 5.84375,1.41992 1.84662,1.09172 2.98882,2.66961 3.42578,4.73243 l 0.23633,1.11328 -15.3164,1.00781 c 0.47695,1.55822 1.41839,2.70892 2.82421,3.45313 1.41615,0.73517 3.22882,1.02994 5.4375,0.88476 1.27929,-0.0841 2.49315,-0.27333 3.64258,-0.56641 1.16149,-0.29383 2.28899,-0.69434 3.38086,-1.20117 l 0.45508,2.1543 c -1.12142,0.42509 -2.28912,0.76917 -3.50586,1.0332 -1.21674,0.26402 -2.47031,0.43855 -3.76172,0.52344 -3.23455,0.2126 -5.93599,-0.26117 -8.10351,-1.42383 -2.1554,-1.16344 -3.46675,-2.84421 -3.93164,-5.03906 -0.48067,-2.2691 0.0324,-4.12642 1.5371,-5.57227 1.51523,-1.45491 3.79261,-2.28252 6.83399,-2.48242 0.34094,-0.0224 0.67493,-0.0347 1.00195,-0.0371 z m -23.00976,0.33985 c 1.2333,-0.0308 2.40423,0.002 3.51367,0.0996 1.10935,0.0976 2.14605,0.2598 3.10742,0.48632 l 0.36719,2.16993 c -0.99959,-0.30909 -2.02056,-0.53287 -3.06446,-0.67383 -1.04389,-0.14097 -2.11093,-0.19903 -3.19921,-0.17188 -1.65647,0.0413 -2.87136,0.24711 -3.64649,0.61719 -0.76291,0.36976 -1.08531,0.90501 -0.9668,1.60352 0.0902,0.5322 0.45874,0.94345 1.10352,1.23632 0.64321,0.28458 1.88263,0.54173 3.71875,0.77149 l 1.17188,0.14648 c 2.42912,0.29013 4.19282,0.74382 5.29296,1.35938 1.1108,0.60693 1.76372,1.47992 1.95704,2.61914 0.22003,1.29723 -0.35565,2.34259 -1.72657,3.13672 -1.35878,0.79381 -3.3432,1.22389 -5.95508,1.28906 -1.0882,0.0272 -2.23892,-0.0205 -3.44921,-0.14062 -1.19691,-0.1121 -2.47297,-0.29622 -3.82813,-0.55469 l -0.40234,-2.3711 c 1.30811,0.40995 2.58128,0.71355 3.8164,0.90821 1.23379,0.18632 2.43661,0.26363 3.60938,0.23437 1.57198,-0.0392 2.74892,-0.25168 3.5332,-0.63867 0.78295,-0.39532 1.11819,-0.92996 1.00391,-1.60352 -0.10583,-0.62366 -0.49492,-1.09486 -1.16797,-1.4121 -0.66108,-0.31754 -2.05206,-0.6033 -4.17188,-0.85938 l -1.19336,-0.1582 c -2.1184,-0.24777 -3.68761,-0.66735 -4.71093,-1.25977 -1.02482,-0.60073 -1.62913,-1.44241 -1.8125,-2.52344 -0.22293,-1.31384 0.28071,-2.34482 1.51367,-3.09375 1.23287,-0.74892 3.09514,-1.15463 5.58594,-1.21679 z m 69.05273,0.27734 0.70703,1.95117 -9.57422,1.98633 -0.70703,-1.94922 z m -45.41406,1.3418 c -0.37944,-0.0221 -0.77521,-0.0192 -1.18555,0.008 -1.85864,0.12216 -3.27183,0.57947 -4.24219,1.37109 -0.9583,0.79084 -1.38454,1.8434 -1.27734,3.15821 l 11.87305,-0.79297 c -0.28796,-1.24436 -1.01075,-2.20605 -2.16992,-2.88281 -0.86023,-0.50818 -1.85973,-0.79498 -2.99805,-0.86133 z"
               style="fill:#ffffff;fill-opacity:1;fill-rule:evenodd;stroke:none;stroke-width:1px;stroke-linecap:butt;stroke-linejoin:miter;stroke-opacity:1"
               inkscape:connector-curvature="0" />
            <path
               style="fill:none;fill-rule:evenodd;stroke:#000000;stroke-width:1px;stroke-linecap:butt;stroke-linejoin:miter;stroke-opacity:1"
               d="m -2825.7664,-85.95043 c 16.1441,-6.8562 52.8797,-24.93979 105.0386,-41.36802 36.5643,-11.51649 72.2664,-18.10009 85.6031,-10.99814 16.3036,8.68185 3.4887,25.70741 -15.1381,39.34613 -22.0745,16.1632 -53.5701,30.812108 -53.5701,30.812108 3.3518,12.97872 9.8736,24.049086 19.4858,36.291286 34.5225,8.258503 68.9759,0.269788 103.4984,-4.457667"
               id="path4435"
               inkscape:connector-curvature="0"
               sodipodi:nodetypes="csssccc" />
            <path
               style="fill:none;fill-rule:evenodd;stroke:#000000;stroke-width:1px;stroke-linecap:butt;stroke-linejoin:miter;stroke-opacity:1"
               d="m -2688.2059,-136.20439 c 8.8664,-12.41524 19.3238,-22.48231 31.3308,-32.41002"
               id="path4437"
               inkscape:connector-curvature="0"
               sodipodi:nodetypes="cc" />
            <path
               style="fill:none;fill-rule:evenodd;stroke:#000000;stroke-width:0.5;stroke-linecap:butt;stroke-linejoin:miter;stroke-miterlimit:4;stroke-dasharray:none;stroke-opacity:1"
               d="m -2610.6427,-253.02885 c 0.132,6.04349 3.1547,10.51065 7.4515,14.21144"
               id="path4440"
               inkscape:connector-curvature="0"
               sodipodi:nodetypes="cc" />
            <path
               style="fill:none;fill-rule:evenodd;stroke:#000000;stroke-width:1px;stroke-linecap:butt;stroke-linejoin:miter;stroke-opacity:1"
               d="m -2729.4432,-72.279393 c 8.0365,-0.733592 14.1991,-1.443945 20.923,0.552427"
               id="path4442"
               inkscape:connector-curvature="0"
               sodipodi:nodetypes="cc" />
          </g>
        </g>
      </g>
    </g>
  </g>
</svg>
