<?xml version="1.0" encoding="UTF-8" standalone="no"?>
<!-- Created with Inkscape (http://www.inkscape.org/) -->

<svg
   xmlns:dc="http://purl.org/dc/elements/1.1/"
   xmlns:cc="http://creativecommons.org/ns#"
   xmlns:rdf="http://www.w3.org/1999/02/22-rdf-syntax-ns#"
   xmlns:svg="http://www.w3.org/2000/svg"
   xmlns="http://www.w3.org/2000/svg"
   xmlns:sodipodi="http://sodipodi.sourceforge.net/DTD/sodipodi-0.dtd"
   xmlns:inkscape="http://www.inkscape.org/namespaces/inkscape"
   width="151.16148mm"
   height="94.193169mm"
   viewBox="0 0 535.61156 333.75531"
   id="svg2"
   version="1.1"
   inkscape:version="0.92.1 r15371"
   sodipodi:docname="logo(official).svg"
   inkscape:export-filename="K:\cloud\see-base\logo\logo.png"
   inkscape:export-xdpi="291.23132"
   inkscape:export-ydpi="291.23132">
  <defs
     id="defs4">
    <pattern
       y="0"
       x="0"
       height="6"
       width="6"
       patternUnits="userSpaceOnUse"
       id="EMFhbasepattern" />
    <filter
       inkscape:collect="always"
       style="color-interpolation-filters:sRGB"
       id="filter4650"
       x="-0.080496099"
       width="1.1609922"
       y="-0.20250503"
       height="1.4050101">
      <feGaussianBlur
         inkscape:collect="always"
         stdDeviation="8.7972843"
         id="feGaussianBlur4652" />
    </filter>
  </defs>
  <sodipodi:namedview
     id="base"
     pagecolor="#ffffff"
     bordercolor="#666666"
     borderopacity="1.0"
     inkscape:pageopacity="0.0"
     inkscape:pageshadow="2"
     inkscape:zoom="0.9050967"
     inkscape:cx="259.17604"
     inkscape:cy="173.814"
     inkscape:document-units="px"
     inkscape:current-layer="layer3"
     showgrid="false"
     fit-margin-top="0"
     fit-margin-left="0"
     fit-margin-right="0"
     fit-margin-bottom="0"
     showguides="false"
     inkscape:guide-bbox="true"
     inkscape:window-width="1920"
     inkscape:window-height="1017"
     inkscape:window-x="-8"
     inkscape:window-y="-8"
     inkscape:window-maximized="1"
     inkscape:snap-text-baseline="true">
    <sodipodi:guide
       position="1037.0368,-885.64452"
       orientation="1,0"
       id="guide4272"
       inkscape:locked="false" />
  </sodipodi:namedview>
  <metadata
     id="metadata7">
    <rdf:RDF>
      <cc:Work
         rdf:about="">
        <dc:format>image/svg+xml</dc:format>
        <dc:type
           rdf:resource="http://purl.org/dc/dcmitype/StillImage" />
        <dc:title />
      </cc:Work>
    </rdf:RDF>
  </metadata>
  <g
     inkscape:groupmode="layer"
     id="layer3"
     inkscape:label="back"
     transform="translate(-276.39486,1288.8184)"
     style="display:inline">
    <rect
       style="opacity:1;fill:#ffffff;fill-opacity:1;stroke:#ffffff;stroke-width:0.34830889;stroke-miterlimit:4;stroke-dasharray:none;stroke-opacity:1"
       id="rect4321"
       width="572.46625"
       height="368.06824"
       x="256.43164"
       y="-1305.3778"
       inkscape:export-xdpi="800.04553"
       inkscape:export-ydpi="800.04553" />
  </g>
  <g
     inkscape:label="Layer 1"
     inkscape:groupmode="layer"
     id="layer1"
     transform="translate(2807.1188,1006.9797)"
     style="display:inline">
    <flowRoot
       style="font-style:normal;font-weight:normal;line-height:0.01%;font-family:sans-serif;letter-spacing:0px;word-spacing:0px;fill:#000000;fill-opacity:1;stroke:none"
       id="flowRoot5842"
       xml:space="preserve"
       transform="rotate(-4.6960909,222.99276,157.01947)"><flowRegion
         id="flowRegion5844"><rect
           y="-775.7973"
           x="678.82251"
           height="800.04083"
           width="1208.1425"
           id="rect5846" /></flowRegion><flowPara
         id="flowPara5848"
         style="font-size:40px;line-height:25"> </flowPara></flowRoot>    <text
       id="text4403"
       y="564.59161"
       x="-2390.1306"
       style="font-style:normal;font-weight:normal;line-height:0%;font-family:sans-serif;letter-spacing:0px;word-spacing:0px;fill:#000000;fill-opacity:1;stroke:none;stroke-width:0.9375"
       xml:space="preserve"><tspan
         style="font-size:37.5px;line-height:23.4375;stroke-width:0.9375"
         y="564.59161"
         x="-2390.1306"
         id="tspan4401"
         sodipodi:role="line"> </tspan><tspan
         id="tspan4405"
         style="font-size:37.5px;line-height:23.4375;stroke-width:0.9375"
         y="1443.4978"
         x="-2390.1306"
         sodipodi:role="line"> </tspan></text>
    <flowRoot
       xml:space="preserve"
       id="flowRoot488"
       style="font-style:normal;font-weight:normal;line-height:0.01%;font-family:sans-serif;letter-spacing:0px;word-spacing:0px;fill:#000000;fill-opacity:1;stroke:none"
       transform="matrix(0.93749998,0,0,0.93749998,-4206.5113,-365.37992)"><flowRegion
         id="flowRegion490"><rect
           id="rect492"
           width="144.45181"
           height="49.497475"
           x="-694.98492"
           y="488.9137" /></flowRegion><flowPara
         id="flowPara494"
         style="font-size:40px;line-height:25"> </flowPara></flowRoot>    <g
       style="display:inline;fill:#000000;fill-opacity:1;stroke:#ffffff;stroke-width:0.19357279;stroke-miterlimit:3.5999999;stroke-dasharray:none;stroke-opacity:1"
       id="g4619"
       transform="matrix(6.3881008,0,0,6.3881008,-2195.1492,-930.81955)">
      <g
         id="g4541"
         style="fill:#000000;fill-opacity:1;stroke:#ffffff;stroke-width:0.19357279;stroke-miterlimit:3.5999999;stroke-dasharray:none;stroke-opacity:1">
        <path
           style="fill:#000000;fill-opacity:1;stroke:#ffffff;stroke-width:0.19357279;stroke-linecap:butt;stroke-linejoin:miter;stroke-miterlimit:3.5999999;stroke-dasharray:none;stroke-opacity:1"
           d="m -53.495683,22.144949 c -0.667588,5.102283 -5.203445,8.403615 -9.399717,11.217022 -4.196273,2.813409 -11.474775,4.711008 -13.293991,5.056595 -2.351848,0.446766 -2.454376,0.889841 -3.641565,-1.905086 -1.452217,-3.418825 -0.10116,-2.36028 3.77645,-4.349662 5.282402,-2.844627 6.385991,-6.362853 6.676213,-11.75083 l 15.476702,-1.045267 z"
           id="path3457"
           inkscape:connector-curvature="0"
           sodipodi:nodetypes="cssscccc" />
        <path
           style="fill:#000000;fill-opacity:1;stroke:#ffffff;stroke-width:0.19357279;stroke-linecap:butt;stroke-linejoin:miter;stroke-miterlimit:3.5999999;stroke-dasharray:none;stroke-opacity:1"
           d="m -54.643394,25.386439 c 8.429574,-0.539492 19.742077,-2.849198 27.514146,-11.801409 4.990314,-6.0524366 4.653124,-7.6034779 5.394926,-8.412719 0.741803,-0.8092384 4.990315,-2.3602811 4.990315,-2.3602811 0,0 -3.472984,1.0452677 -4.990315,0.7080839 -1.517316,-0.3371824 -3.67529,-2.1242531 -7.080838,-3.40554874 -3.405549,-1.28129566 -10.385242,-2.96721196 -16.960309,-1.41616916 -6.575066,1.55104269 -15.510427,4.8891547 -19.455473,7.8563652 -3.903502,3.6371549 -9.098643,7.9452649 -6.603863,13.9079599 2.815037,6.424228 10.337816,5.390398 17.191411,4.923718 z"
           id="path3423"
           inkscape:connector-curvature="0"
           sodipodi:nodetypes="ccsccssccc" />
        <path
           style="fill:#000000;fill-opacity:1;stroke:#ffffff;stroke-width:0.19357279;stroke-linecap:butt;stroke-linejoin:miter;stroke-miterlimit:3.5999999;stroke-dasharray:none;stroke-opacity:1"
           d="m -81.348287,12.354311 c -4.906017,2.006239 -4.484543,-3.4898433 -4.147352,-4.0799146 0.337177,-0.5900713 6.575067,-2.8997752 11.514795,-2.731184 4.939742,0.1685927 8.092397,0.5900714 9.52543,1.719634 1.433033,1.129564 1.517317,1.9556633 -1.213864,3.0346486 -2.731182,1.078985 -15.679009,2.056816 -15.679009,2.056816 z"
           id="path3477"
           inkscape:connector-curvature="0" />
        <path
           sodipodi:nodetypes="csc"
           inkscape:connector-curvature="0"
           id="path3339"
           d="m -38.169182,-0.43316707 c -1.659351,-5.19222203 -3.525055,-5.02985333 -8.682583,-3.39872253 -3.33578,1.0549836 -5.816191,1.6202718 -3.906659,7.2302962"
           style="fill:#000000;fill-opacity:1;stroke:#ffffff;stroke-width:0.19357279;stroke-linecap:butt;stroke-linejoin:miter;stroke-miterlimit:3.5999999;stroke-dasharray:none;stroke-opacity:1" />
        <path
           style="fill:#000000;fill-opacity:1;stroke:#ffffff;stroke-width:0.19357279;stroke-linecap:butt;stroke-linejoin:miter;stroke-miterlimit:3.5999999;stroke-dasharray:none;stroke-opacity:1"
           d="m -72.653671,17.542617 c -2.5626,-2.124255 -13.34774,-0.788066 -15.067377,0.156047 -1.719636,0.944112 -4.352192,-0.908903 -5.276918,-1.905085 -1.516334,-1.633497 -1.433033,-2.141112 1.011544,-3.253817 2.444578,-1.112704 7.114564,-3.017789 13.622209,-4.6362671 6.507632,-1.6184795 12.796095,-1.3824501 15.577849,-0.741803 2.781768,0.6406472 4.693328,1.858565 3.97877,3.6921551 -0.893536,2.292845 -6.811097,5.496084 -9.609728,6.237887 -2.798616,0.741803 -4.236349,0.450883 -4.236349,0.450883 z"
           id="path3467"
           inkscape:connector-curvature="0"
           sodipodi:nodetypes="csssscscc" />
      </g>
      <path
         sodipodi:nodetypes="ccccccc"
         inkscape:connector-curvature="0"
         id="path4552"
         d="m -47.721104,-3.0916314 c -0.248153,-0.8006409 -0.89414,-2.5187722 -0.94041,-3.5720765 -0.04698,-1.2626438 0.957858,-2.1828245 2.198432,-2.4401454 0.500126,-0.1523539 0.995137,-0.2670753 1.544214,-0.3568249 0.449468,0.6143069 0.520026,1.1563127 0.412198,1.8897474 -0.985112,0.2907923 -1.896036,0.1628163 -1.902833,1.1978999 0.02429,0.7659145 0.814517,1.9963891 1.077214,2.6369643"
         style="fill:#000000;fill-opacity:1;fill-rule:evenodd;stroke:#ffffff;stroke-width:0.19357279;stroke-linecap:butt;stroke-linejoin:miter;stroke-miterlimit:3.5999999;stroke-dasharray:none;stroke-opacity:1" />
    </g>
    <path
       id="path4533"
       d="m -2765.2041,-745.12267 c -8.4803,-2.89056 37.0627,-38.46292 108.0328,-66.9595 71.2096,-28.45801 79.199,-20.33367 89.9306,-17.99524 10.5227,2.00035 33.6979,14.27145 -37.0009,42.50694 -70.7305,28.5352 -147.2288,44.0511 -159.763,42.64101 z"
       style="fill:#000000;fill-opacity:1;fill-rule:nonzero;stroke:#ffffff;stroke-width:3.37997866;filter:url(#filter4650)"
       inkscape:connector-curvature="0"
       transform="matrix(0.54418167,0.04545604,-0.05576027,0.66753989,-1316.0578,-115.75781)"
       sodipodi:nodetypes="cccccc" />
    <text
       xml:space="preserve"
       style="font-style:normal;font-weight:normal;font-size:20.42431068px;line-height:0%;font-family:sans-serif;letter-spacing:0px;word-spacing:0px;display:inline;fill:#000000;fill-opacity:1;stroke:none;stroke-width:3.23461127px;stroke-linecap:butt;stroke-linejoin:miter;stroke-opacity:1"
       x="-2554.8208"
       y="-705.67859"
       id="text4160"><tspan
         sodipodi:role="line"
         id="tspan4162"
         x="-2554.8208"
         y="-705.67859"
         style="font-style:normal;font-variant:normal;font-weight:normal;font-stretch:normal;font-size:63.3484993px;line-height:1.25;font-family:Lato;-inkscape-font-specification:Lato;fill:#000000;fill-opacity:1;stroke-width:3.23461127px">see-base</tspan></text>
  </g>
</svg>
